<?xml version="1.0" encoding="UTF-8"?>
<svg id="Layer_2" data-name="Layer 2" xmlns="http://www.w3.org/2000/svg" viewBox="0 0 87 92.72">
  <g id="Layer_1-2" data-name="Layer 1">
    <path d="M24.3,11.91c-.08-15.89-24.22-15.88-24.3,0,.08,15.88,24.21,15.88,24.3,0h0ZM12.15,2.76c11.86-.17,11.87,18.47,0,18.3-11.87.17-11.86-18.47,0-18.3Z"/>
    <path d="M59.1,63.07c-2.95-7.66-17.71-6.96-24.08-8.65-1.18-4.71-6.69-24.24-17.39-27.47-27.21-7.45-2.57,49.45,12.5,45.6.49.19,17.37-1.7,17.72-1.07,1.03.29,16.65,23.55,18.34,21.05.82-1.1,6.83-2.92,5.48-5.07,0,0-12.56-24.4-12.56-24.4h0ZM65.72,89.28c-20.51-23.74-8.78-21.73-35.84-19.73-10.79,2.24-26.09-32.05-20.18-38.9,13.21-9.07,23.1,24.78,22.63,25.41-.7,1.8,17.29,3.43,18,3.93,6.99-.02,14.69,23.28,18.03,27.62,0,0-2.65,1.66-2.64,1.67Z"/>
    <path d="M79.77,24.95c3.9-5.44-3.51-11.72-7.83-6.43-25.55-51.29-67.89,40.68-12.49,26.9-2.53,8.13,8.3,9.87,10.14,1.69,1.18-.29,11.14,1.6,11.5-.27,6.43-16.24,9.72-10.6-1.34-21.87l.02-.02ZM70.95,44.16l7.48-16.29,5.49,5.66-5.1,11.1-7.87-.47h0ZM63.12,49.32c-4.37-.14,11.27-27.27,10.99-28.63,1.02-2.32,4.68-.66,3.56,1.64,0,0-1.06,2.3-1.06,2.3-1.95,4.26-8.83,19.21-10.9,23.72-.45.98-1.62,1.42-2.6.96h0ZM42.46,42.6c-23.09-13.27,14.08-61.28,27.56-20.19l-8.69,18.92c-5.92,3.25-13.5,3.73-18.87,1.27h0Z"/>
  </g>
</svg>