<?xml version="1.0" encoding="UTF-8"?>
<svg id="Layer_2" data-name="Layer 2" xmlns="http://www.w3.org/2000/svg" viewBox="0 0 50 50">
  <g id="Layer_1-2" data-name="Layer 1">
    <path d="M25,18.31c-1.17,0-2.12-.85-2.12-1.9,0-.55-.45-1-1-1s-1,.45-1,1c0,1.83,1.33,3.35,3.12,3.78v.94c0,.55.45,1,1,1s1-.45,1-1v-.94c1.79-.43,3.12-1.95,3.12-3.78,0-2.75-2.89-3.59-3.85-3.87-2.4-.7-2.4-1.64-2.4-1.94,0-1.05.95-1.9,2.12-1.9s2.12.85,2.12,1.9c0,.55.45,1,1,1s1-.45,1-1c0-1.83-1.33-3.35-3.12-3.78v-.94c0-.55-.45-1-1-1s-1,.45-1,1v.94c-1.79.43-3.12,1.95-3.12,3.78s1.29,3.12,3.85,3.87c2.12.62,2.4,1.33,2.4,1.94,0,1.05-.95,1.9-2.12,1.9Z"/>
    <path d="M38.74,34.94c-2,0-3.62,1.63-3.62,3.62s1.63,3.62,3.62,3.62,3.62-1.63,3.62-3.62-1.63-3.62-3.62-3.62ZM38.74,40.19c-.9,0-1.62-.73-1.62-1.62s.73-1.62,1.62-1.62,1.62.73,1.62,1.62-.73,1.62-1.62,1.62Z"/>
    <path d="M11.26,34.94c-2,0-3.62,1.63-3.62,3.62s1.63,3.62,3.62,3.62,3.62-1.63,3.62-3.62-1.63-3.62-3.62-3.62ZM11.26,40.19c-.9,0-1.62-.73-1.62-1.62s.73-1.62,1.62-1.62,1.62.73,1.62,1.62-.73,1.62-1.62,1.62Z"/>
    <path d="M30.11,35.29h-10.23c-.55,0-1,.45-1,1s.45,1,1,1h10.23c.55,0,1-.45,1-1s-.45-1-1-1Z"/>
    <path d="M30.11,39.85h-10.23c-.55,0-1,.45-1,1s.45,1,1,1h10.23c.55,0,1-.45,1-1s-.45-1-1-1Z"/>
    <path d="M47.79,26.57h-4.51c-.55,0-1,.45-1,1v2.79h-.22l-.99-2.68c-.98-2.64-3.53-4.42-6.34-4.42h-.42c2.63-2.52,4.19-6.05,4.19-9.76,0-7.44-6.06-13.5-13.5-13.5s-13.5,6.06-13.5,13.5c0,3.71,1.56,7.24,4.19,9.76h-.42c-2.82,0-5.37,1.78-6.34,4.42l-.99,2.68h-.22v-2.79c0-.55-.45-1-1-1H2.21c-1.22,0-2.21.99-2.21,2.21v1.37c0,1.22.99,2.21,2.21,2.21h4.47c-2.03,1.46-3.37,3.84-3.37,6.53v4.48c0,.71.26,1.35.69,1.86v2c0,1.53,1.24,2.77,2.77,2.77h5.3c1.53,0,2.77-1.24,2.77-2.77v-.94h20.35v.94c0,1.53,1.24,2.77,2.77,2.77h5.3c1.53,0,2.77-1.24,2.77-2.77v-2c.42-.51.69-1.15.69-1.86v-4.48c0-2.69-1.33-5.07-3.37-6.53h4.47c1.22,0,2.21-.99,2.21-2.21v-1.37c0-1.22-.99-2.21-2.21-2.21ZM5.72,30.36h-3.51c-.11,0-.21-.09-.21-.21v-1.37c0-.11.09-.21.21-.21h3.51v1.79ZM13.5,13.5c0-6.34,5.16-11.5,11.5-11.5s11.5,5.16,11.5,11.5c0,3.96-2.08,7.67-5.44,9.76h-12.12c-3.36-2.09-5.44-5.8-5.44-9.76ZM10.8,28.37c.69-1.86,2.48-3.11,4.47-3.11h16.08s0,0,0,0,0,0,0,0h3.36c1.98,0,3.78,1.25,4.47,3.11l.97,2.62c-.49-.09-1-.15-1.52-.15H11.35c-.52,0-1.03.05-1.52.15l.97-2.62ZM12.83,47.23c0,.42-.34.77-.77.77h-5.3c-.42,0-.77-.34-.77-.77v-.96c.08,0,.15.02.23.02h6.59v.94ZM44,47.23c0,.42-.34.77-.77.77h-5.3c-.42,0-.77-.34-.77-.77v-.94h6.59c.08,0,.16-.02.24-.02v.96ZM44.69,38.89v4.48c0,.51-.41.92-.92.92H6.23c-.51,0-.92-.41-.92-.92v-4.48c0-3.33,2.71-6.05,6.05-6.05h27.29c3.33,0,6.05,2.71,6.05,6.05ZM48,30.15c0,.11-.09.21-.21.21h-3.51v-1.79h3.51c.11,0,.21.09.21.21v1.37Z"/>
  </g>
</svg>