<svg width="11" height="11" viewBox="0 0 11 11" xmlns="http://www.w3.org/2000/svg">
<path d="M10.3359 5.8125C10.3359 8.62207 8.03906 10.8984 5.25 10.8984C2.44043 10.8984 0.164062 8.62207 0.164062 5.8125C0.164062 3.02344 2.44043 0.726562 5.25 0.726562C8.03906 0.726562 10.3359 3.02344 10.3359 5.8125ZM4.65527 8.51953L8.42871 4.74609C8.55176 4.62305 8.55176 4.39746 8.42871 4.27441L7.95703 3.82324C7.83398 3.67969 7.62891 3.67969 7.50586 3.82324L4.42969 6.89941L2.97363 5.46387C2.85059 5.32031 2.64551 5.32031 2.52246 5.46387L2.05078 5.91504C1.92773 6.03809 1.92773 6.26367 2.05078 6.38672L4.18359 8.51953C4.30664 8.64258 4.53223 8.64258 4.65527 8.51953Z" fill="currentColor"/>
</svg>
