<svg width="518" height="70" viewBox="0 0 518 70" fill="none" xmlns="http://www.w3.org/2000/svg">
<path d="M93.9175 0.0479813L518 0L517.964 63.7911L517.96 69.6425L93.8818 69.6492L93.9175 0.0479813Z" fill="#2A2BC2"/>
<path d="M212.323 10.6019C215.891 10.5868 219.607 10.5242 223.246 10.561C237.352 10.7041 258.044 7.67221 253.63 29.3226C252.945 32.6855 250.172 34.5198 247.386 36.0992C256.76 39.2377 254.464 49.8114 254.349 58.1075L243.819 58.071C242.049 50.5721 248.186 40.3937 233.649 41.2695C230.423 41.4637 226.348 41.3412 223.057 41.2829L223.012 58.0627L212.298 58.0619L212.323 10.6019Z" fill="white"/>
<path d="M223.05 19.6658C229.901 19.6777 250.5 17.2785 241.936 30.8099C238.174 33.0196 227.826 32.4123 223.047 32.3782L223.05 19.6658Z" fill="#2A2BC2"/>
<path d="M262.285 10.6105C270.538 10.5732 278.739 10.4626 287.035 10.6386C296.271 10.8345 304.892 14.027 304.036 24.886C303.778 28.1447 303.049 32.1756 300.29 34.2989C299.307 35.0537 298.391 35.2131 297.364 36.1261C306.453 39.1081 304.273 50.069 304.158 58.1003L294.118 58.0853C292.124 56.0472 295.046 45.5033 291.938 42.9538C289.08 40.6066 277.03 41.334 272.924 41.3273C272.956 46.909 272.94 52.4912 272.88 58.073L262.289 58.0956L262.285 10.6105Z" fill="white"/>
<path d="M272.933 19.671C280.365 19.6107 299.561 17.1465 291.816 30.8032C287.852 33.0109 277.903 32.4103 272.964 32.3834L272.933 19.671Z" fill="#2A2BC2"/>
<path d="M142.354 10.5844L152.161 10.6165L152.159 57.9937C147.546 58.259 141.844 58.0873 137.15 58.0667L124.601 34.8282C122.384 30.7168 119.345 24.6823 116.855 21.0217L116.824 58.077L106.935 58.0802L106.93 10.5999L122.17 10.607C127.067 19.3345 131.59 28.3735 136.421 37.1442C138.45 40.827 140.527 44.6998 142.225 48.5369C142.817 37.4237 142.354 22.0199 142.354 10.5844Z" fill="white"/>
<path d="M175.049 10.6038L189.531 10.5867C195.702 26.3703 201.787 42.1868 207.788 58.0357L196.783 58.1039L193.317 48.8401L189.363 48.8647L171.246 48.8777C170.097 52.1261 169.069 54.9792 167.708 58.1392L156.736 58.0448L175.049 10.6038Z" fill="white"/>
<path d="M182.393 19.1636C183.493 21.1041 189.009 36.9507 190.12 40.0306L183.169 40.0508L174.523 40.1273C176.255 34.6906 180.155 24.3549 182.393 19.1636Z" fill="#2A2BC2"/>
<path d="M326.067 10.6446C330.803 10.5103 336.063 10.6169 340.844 10.6252C342.429 15.6829 344.887 21.6024 346.825 26.6169C350.931 37.0724 354.951 47.562 358.883 58.0841L347.808 58.0805C347.027 55.6242 345.905 51.296 344.217 49.3551C343.634 48.6883 342.354 48.875 341.323 48.8421L322.293 48.8714L318.968 58.0996L307.869 58.0746C309.36 53.5049 311.877 47.6829 313.613 43.0768C317.683 32.2561 322.036 21.4914 326.067 10.6446Z" fill="white"/>
<path d="M333.388 19.1505C334.355 20.1725 340.277 37.401 341.24 40.0991L334.585 40.0631L325.698 40.0397C327.43 34.3334 331.192 24.8377 333.388 19.1505Z" fill="#2A2BC2"/>
<path d="M475.124 10.6319L489.925 10.6042C491.292 15.0831 493.306 19.5421 494.911 23.9477C498.998 35.1624 504.182 46.8032 507.92 58.0785L496.893 58.1102C496.073 55.6044 495.038 51.336 493.322 49.4466C492.537 48.5828 491.035 48.8508 489.778 48.8484L471.553 48.8496L468.084 58.1122L456.95 58.0781L468.485 28.184C470.566 22.8064 473.4 16.0413 475.124 10.6319Z" fill="white"/>
<path d="M482.548 19.2167C483.452 20.2304 489.334 37.2147 490.452 40.0627L482.235 40.0567L474.731 40.0437C477.098 33.2397 479.908 25.9366 482.548 19.2167Z" fill="#2A2BC2"/>
<path d="M454.754 10.6121L466.182 10.6343L463.399 17.9901C458.345 31.2472 453.057 44.8024 448.23 58.1174L434.622 58.0789C432.597 53.6028 430.147 46.5194 428.351 41.7697L416.587 10.6771C419.96 10.4722 424.713 10.6157 428.185 10.6173C432.386 23.4415 437.115 36.5788 441.535 49.3554C445.792 36.4135 450.481 23.5695 454.754 10.6121Z" fill="white"/>
<path d="M353.468 10.6252C367.472 10.4512 381.801 10.6109 395.833 10.6129L395.817 20.0274L379.997 19.9933L379.993 42.0865L380.017 58.0512L369.263 58.0722C369.053 45.5858 369.24 32.5566 369.236 20.0262L353.46 20.0195L353.468 10.6252Z" fill="white"/>
<path d="M401.418 10.5967L412.16 10.5971L412.152 58.0342C408.624 58.1032 404.966 58.0635 401.43 58.075L401.418 10.5967Z" fill="white"/>
<path d="M68.2656 10.6376C73.47 26.0737 80.9378 42.3421 86.3301 58.0439L75.2549 58.0732C74.4506 55.1364 73.0415 51.7177 71.9297 48.8241L68.6016 48.8349L50.0303 48.8202C48.8368 51.4698 47.6103 55.2309 46.6123 58.0419L35.3779 58.0634C41.6081 42.9031 47.7548 26.0397 53.6973 10.6357L68.2656 10.6376ZM61.0625 19.1689C58.372 25.1774 55.4822 33.7007 53.165 40.0399L62.2744 40.1005L68.9307 40.0761C66.1604 33.1513 63.8426 26.0195 61.0625 19.1689Z" fill="black"/>
<path d="M0.0626233 10.6105C3.61416 10.6062 7.16728 10.5693 10.7141 10.7552L10.6816 49.0173L34.0265 49.0546L33.9964 58.0401L0 58.0627L0.0626233 10.6105Z" fill="black"/>
</svg>
